Coordinates
version=1
nRows=54
nColumns=12
inDegrees=yes

Units are S.I. units (second, meters, Newtons, ...)
Angles are in degrees

endheader
time	SC_y	SC_z	SC_x	AC_y	AC_z	AC_x	GH_y	GH_z	GH_yy	EL_x	PS_y
       0.0              -43.88          8.252          63.25          67.63         -9.157         -1.706         -134.2          81.94          93.51          136.8          86.16
   0.02252              -43.88          8.256          63.25          67.63         -9.156         -1.706         -134.2          81.92          93.51          136.8          86.15
   0.04504              -43.87          8.261          63.24          67.62         -9.156         -1.707         -134.1          81.91          93.51          136.8          86.14
   0.06756              -43.87          8.266          63.23          67.62         -9.156         -1.707         -134.1           81.9          93.52          136.8          86.13
   0.09007              -43.87          8.271          63.22          67.62         -9.155         -1.708         -134.1          81.88          93.52          136.8          86.12
    0.1126              -43.86          8.276          63.21          67.62         -9.155         -1.709         -134.1          81.87          93.52          136.8          86.11
    0.1351              -43.86          8.282           63.2          67.61         -9.155          -1.71         -134.1          81.85          93.52          136.8          86.09
    0.1576              -43.85          8.289          63.19          67.61         -9.154          -1.71         -134.0          81.83          93.53          136.8          86.08
    0.1801              -43.85          8.296          63.18          67.61         -9.154         -1.711         -134.0          81.81          93.53          136.8          86.07
    0.2027              -43.84          8.303          63.17           67.6         -9.153         -1.712         -134.0          81.79          93.53          136.8          86.05
    0.2252              -43.84          8.311          63.16           67.6         -9.153         -1.713         -134.0          81.77          93.54          136.8          86.03
    0.2477              -43.83          8.319          63.14          67.59         -9.152         -1.714         -133.9          81.75          93.54          136.8          86.02
    0.2702              -43.83          8.329          63.13          67.59         -9.152         -1.715         -133.9          81.72          93.55          136.8           86.0
    0.2927              -43.82          8.338          63.11          67.58         -9.151         -1.717         -133.9          81.69          93.55          136.8          85.97
    0.3153              -43.81          8.349          63.09          67.58         -9.151         -1.718         -133.8          81.66          93.56          136.8          85.95
    0.3378               -43.8          8.361          63.08          67.57          -9.15         -1.719         -133.8          81.63          93.56          136.8          85.93
    0.3603              -43.79          8.373          63.05          67.56         -9.149         -1.721         -133.7           81.6          93.57          136.8           85.9
    0.3828              -43.78          8.387          63.03          67.56         -9.148         -1.723         -133.7          81.56          93.57          136.8          85.87
    0.4053              -43.77          8.402          63.01          67.55         -9.148         -1.725         -133.6          81.52          93.58          136.8          85.84
    0.4279              -43.76          8.419          62.98          67.54         -9.147         -1.727         -133.6          81.47          93.59          136.8           85.8
    0.4504              -43.75          8.437          62.95          67.53         -9.145         -1.729         -133.5          81.42           93.6          136.8          85.76
    0.4729              -43.74          8.456          62.92          67.52         -9.144         -1.731         -133.5          81.37          93.61          136.8          85.72
    0.4954              -43.72          8.478          62.88          67.51         -9.143         -1.734         -133.4          81.31          93.62          136.7          85.68
    0.5179               -43.7          8.503          62.84          67.49         -9.142         -1.737         -133.3          81.24          93.63          136.7          85.62
    0.5404              -43.69           8.53           62.8          67.48          -9.14         -1.741         -133.2          81.16          93.64          136.7          85.57
     0.563              -43.66           8.56          62.75          67.46         -9.138         -1.744         -133.1          81.08          93.66          136.7           85.5
    0.5855              -43.64          8.594          62.69          67.45         -9.136         -1.749         -133.0          80.98          93.67          136.7          85.43
     0.608              -43.62          8.632          62.63          67.43         -9.134         -1.753         -132.9          80.88          93.69          136.7          85.35
    0.6305              -43.59          8.674          62.56           67.4         -9.131         -1.759         -132.7          80.76          93.71          136.7          85.26
     0.653              -43.55          8.723          62.48          67.38         -9.128         -1.765         -132.5          80.62          93.74          136.6          85.15
    0.6756              -43.51          8.779          62.39          67.35         -9.125         -1.772         -132.4          80.47          93.76          136.6          85.03
    0.6981              -43.47          8.843          62.29          67.31         -9.121          -1.78         -132.1          80.29          93.79          136.6           84.9
    0.7206              -43.42          8.916          62.16          67.27         -9.117         -1.789         -131.9          80.09          93.83          136.5          84.74
    0.7431              -43.36          9.002          62.02          67.23         -9.112           -1.8         -131.6          79.85          93.87          136.5          84.56
    0.7656              -43.29          9.102          61.86          67.17         -9.106         -1.812         -131.2          79.57          93.92          136.5          84.34
    0.7881              -43.21           9.22          61.67          67.11         -9.099         -1.827         -130.8          79.24          93.98          136.4          84.09
    0.8107              -43.11          9.361          61.44          67.04          -9.09         -1.845         -130.3          78.85          94.04          136.3          83.79
    0.8332              -42.99          9.529          61.16          66.95          -9.08         -1.866         -129.8          78.38          94.13          136.3          83.43
    0.8557              -42.85          9.732          60.83          66.84         -9.068         -1.892         -129.1          77.81          94.22          136.2           83.0
    0.8782              -42.68          9.981          60.42          66.71         -9.053         -1.923         -128.2          77.12          94.34          136.1          82.47
    0.9007              -42.47          10.29          59.92          66.54         -9.035         -1.961         -127.2          76.27          94.49          135.9          81.81
    0.9233               -42.2          10.67          59.29          66.34         -9.012         -2.009         -125.8           75.2          94.68          135.8          80.99
    0.9458              -41.87          11.15           58.5          66.08         -8.984          -2.07         -124.2          73.86          94.91          135.5          79.96
    0.9683              -41.45          11.77          57.49          65.75         -8.947         -2.147         -122.1          72.16          95.21          135.3          78.65
    0.9908               -40.9          12.55          56.21          65.33           -8.9         -2.245         -119.4          69.97          95.58          134.9          76.98
     1.013              -40.21          13.56          54.56           64.8          -8.84         -2.372         -115.9          67.17          96.07          134.5          74.83
     1.036              -39.32          14.84          52.45          64.11         -8.764         -2.533         -111.5          63.59          96.69          133.9          72.08
     1.058               -38.2          16.46           49.8          63.25         -8.667         -2.736         -105.9          59.09          97.47          133.2          68.63
     1.081              -36.83          18.43          46.57           62.2          -8.55         -2.983         -99.11          53.61          98.42          132.3          64.42
     1.103              -35.25          20.71          42.82          60.98         -8.414          -3.27         -91.24          47.25          99.53          131.2          59.54
     1.126              -33.54          23.19          38.77          59.66         -8.266          -3.58         -82.72          40.37          100.7          130.1          54.25
     1.148              -31.83          25.66          34.72          58.34         -8.119         -3.891          -74.2          33.49          101.9          129.0          48.97
     1.171              -30.25          27.94          30.97          57.12         -7.983         -4.177         -66.34          27.13          103.0          128.0          44.09
     1.193              -28.88          29.91          27.74          56.06         -7.865         -4.425         -59.55          21.65          104.0          127.1          39.88
